PathFileType	4	(X/Y/Z)	 s03c0403.trc
DataRate	CameraRate	NumFrames	NumMarkers	Units	OrigDataRate	OrigDataStartFrame	OrigNumFrames
200	200	5	52	mm	200	251	2000
Frame#	Time	racr			lacr			c7			jug			rlel			rdr			llel			ldr			s2			lic			ric			lasi			rasi			rpsi			lpsi			rgt			lgt			rth1			rth2			rth3			rth4			rlfc			rmfc			rsh1			rsh2			rsh3			rsh4			rlmal			rmmal			rcal			rtoe			rmt5			rmt1			lth1			lth2			lth4			lth3			llfc			lmfc			lsh1			lsh2			lsh3			lsh4			llmal			lmmal			lcal			ltoe			lmt1			lmt5			SBIKE			LBIKE			RBIKE			
		X1	Y1	Z1	X2	Y2	Z2	X3	Y3	Z3	X4	Y4	Z4	X5	Y5	Z5	X6	Y6	Z6	X7	Y7	Z7	X8	Y8	Z8	X9	Y9	Z9	X10	Y10	Z10	X11	Y11	Z11	X12	Y12	Z12	X13	Y13	Z13	X14	Y14	Z14	X15	Y15	Z15	X16	Y16	Z16	X17	Y17	Z17	X18	Y18	Z18	X19	Y19	Z19	X20	Y20	Z20	X21	Y21	Z21	X22	Y22	Z22	X23	Y23	Z23	X24	Y24	Z24	X25	Y25	Z25	X26	Y26	Z26	X27	Y27	Z27	X28	Y28	Z28	X29	Y29	Z29	X30	Y30	Z30	X31	Y31	Z31	X32	Y32	Z32	X33	Y33	Z33	X34	Y34	Z34	X35	Y35	Z35	X36	Y36	Z36	X37	Y37	Z37	X38	Y38	Z38	X39	Y39	Z39	X40	Y40	Z40	X41	Y41	Z41	X42	Y42	Z42	X43	Y43	Z43	X44	Y44	Z44	X45	Y45	Z45	X46	Y46	Z46	X47	Y47	Z47	X48	Y48	Z48	X49	Y49	Z49	X50	Y50	Z50	X51	Y51	Z51	X52	Y52	Z52	
251	1.2550	505.370191	1450.862029	-77.895390	504.251599	1474.298557	-373.630996	417.317140	1522.241774	-226.064569	468.869753	1359.449550	-227.999954	527.596395	1185.567326	40.959653	739.876586	992.111496	-12.590640	541.161639	1208.342184	-482.076786	739.395091	984.504258	-420.352219	-84.022197	1207.792803	-248.662187	110.154740	1208.914575	-423.352356	85.557418	1236.131514	-59.853432	117.363042	1134.378797	-379.381747	104.297326	1173.964451	-101.568861	-54.701725	1258.858447	-206.215073	-45.174116	1251.950923	-287.489095	25.962799	1162.307964	-39.622347	38.192378	1098.053990	-436.920553	146.158372	1073.117409	-16.240624	234.904804	1068.547330	-11.768552	308.843673	1023.465317	-10.906511	246.440770	1100.969654	-26.474581	427.313698	957.982023	-29.069704	438.459228	944.944518	-154.606945	362.263599	805.862652	-15.433970	343.965795	720.617126	-34.769595	283.935754	655.765212	-41.234556	371.071815	711.436061	-60.724048	219.577279	540.143430	-68.087619	246.452677	555.955834	-155.474888	153.365462	493.214311	-111.571019	463.430218	494.519555	-106.042828	343.897941	473.683304	-38.491697	370.679128	492.383909	-152.390331	106.394225	954.246903	-456.456353	164.971595	890.115006	-456.847925	197.164295	907.368887	-451.950800	184.547567	803.612263	-446.953270	256.764756	693.989154	-428.441553	258.490667	684.725167	-305.060536	159.889898	549.702979	-449.046620	142.801539	468.761535	-430.377434	81.597321	401.160292	-421.345816	170.434678	457.087293	-404.483043	17.299469	290.298475	-399.562480	NaN	NaN	NaN	-54.119892	248.129743	-348.680634	253.573893	213.953789	-355.356294	160.434577	217.276256	-310.249010	130.581871	200.560447	-425.031260	-212.281226	946.848187	-228.460852	-4.678393	83.908422	-432.815881	-9.216762	81.067350	-32.491468	
252	1.2600	506.694197	1450.499693	-78.028819	505.441114	1473.651936	-373.484011	418.307181	1521.295911	-226.082455	469.925787	1358.480643	-227.911699	528.075857	1185.574403	42.523538	739.847555	992.288386	-12.978428	542.521579	1208.004636	-482.348109	739.195457	984.624098	-419.993538	-84.075228	1208.048197	-248.849414	110.053042	1208.712023	-423.067512	85.390748	1235.931930	-59.991479	117.148556	1134.485000	-379.431269	104.132004	1174.038997	-101.738348	-54.508978	1258.986569	-206.387351	-44.986889	1252.070066	-287.664534	25.575777	1162.413949	-39.755672	37.903025	1098.074436	-437.131398	145.677687	1073.327146	-16.272919	234.430123	1068.921951	-11.614132	308.401109	1023.851425	-11.009310	245.923028	1101.263684	-26.600591	426.903293	958.313060	-29.007495	438.195983	945.231623	-154.521681	362.077751	806.107340	-15.378572	343.911400	720.840003	-34.727509	283.927662	655.914368	-41.235156	371.042081	711.661426	-60.693726	219.695424	540.286211	-68.077102	246.630437	556.070990	-155.435335	153.449203	493.420662	-111.568179	463.551136	494.394601	-106.063272	344.002882	473.681031	-38.486745	370.791653	492.328664	-152.410435	106.292589	954.322551	-456.624161	165.044375	890.352844	-457.043993	197.198712	907.688927	-452.150386	184.830693	803.860261	-447.175973	257.330081	694.396479	-428.605999	258.983068	685.265315	-305.169382	160.456693	550.079071	-449.147920	143.377773	469.280147	-430.481832	82.144922	401.616238	-421.297199	170.982902	457.498109	-404.495788	17.782942	290.830313	-399.598337	NaN	NaN	NaN	-53.736886	248.986948	-348.737170	253.739771	213.651653	-355.358287	160.653670	217.242611	-310.240744	130.734915	200.707964	-425.036525	-212.323151	946.840273	-228.481198	-4.693265	83.909743	-432.808418	-9.232621	81.085674	-32.501884	
253	1.2650	508.038919	1449.813668	-78.078430	506.656202	1472.951672	-373.459119	419.424369	1520.233380	-226.048977	471.051670	1357.660868	-227.704376	528.549408	1185.575535	44.274744	739.781421	992.405824	-13.305486	542.263182	1207.506122	-483.816720	738.986840	984.776316	-419.687458	-84.155015	1208.285716	-249.025894	109.985634	1208.494430	-422.777912	85.257408	1235.756574	-60.110436	116.902686	1134.568295	-379.455611	103.901078	1174.102583	-101.829957	-54.312382	1259.158039	-206.605319	-44.768218	1252.224625	-287.848256	25.164686	1162.520772	-39.868990	37.599761	1098.128402	-437.363602	145.196313	1073.555816	-16.272712	233.914186	1069.325314	-11.502316	307.824667	1024.153944	-11.627185	245.339280	1101.570678	-26.671395	426.495542	958.689167	-28.970747	437.869558	945.629457	-154.437017	361.888281	806.395180	-15.330749	343.840466	721.139528	-34.665296	283.921427	656.091918	-41.230123	371.010924	712.059056	-60.601826	219.775003	540.403629	-67.912808	246.794626	556.203242	-155.417837	153.580566	493.627213	-111.551286	463.686021	494.254028	-106.097554	344.086957	473.693389	-38.494795	370.895098	492.305687	-152.420281	106.195960	954.430724	-456.752370	165.127949	890.604493	-457.219251	197.314085	907.810157	-451.983422	185.147956	804.191842	-447.391688	257.851955	694.864371	-428.793435	259.485459	685.849291	-305.393466	161.115463	550.511958	-449.237192	143.922732	469.753464	-430.439451	82.703345	402.032723	-421.338730	171.559766	457.882433	-404.511094	18.269203	291.418240	-399.572428	NaN	NaN	NaN	-53.410650	249.900306	-348.675989	253.931269	213.341356	-355.343033	160.951820	217.182860	-310.301620	130.920152	200.811488	-424.990586	-212.336691	946.811181	-228.509137	-4.701263	83.901078	-432.807729	-9.236138	81.035886	-32.513087	
254	1.2700	509.417774	1449.157897	-78.150485	507.928637	1472.176332	-373.375791	420.597869	1519.091320	-226.079448	472.284468	1356.560681	-227.600463	529.038458	1185.599182	46.243484	739.665630	992.522571	-13.606934	542.074861	1207.041439	-485.438212	738.807434	984.909588	-419.461040	-84.185535	1208.625601	-249.246148	109.961375	1208.262922	-422.490973	85.155748	1235.600145	-60.232459	116.672076	1134.664217	-379.531900	103.613458	1174.141947	-101.889678	-54.070090	1259.320194	-206.807936	-44.688589	1252.523518	-287.975886	24.746085	1162.610735	-39.989605	37.274961	1098.181822	-437.601145	144.606321	1073.753373	-16.328223	233.345147	1069.583067	-11.640351	307.324401	1024.498961	-11.591379	244.802444	1101.863279	-26.743198	426.107053	959.099041	-28.894584	437.519066	946.005458	-154.337627	361.662268	806.723126	-15.270768	343.733323	721.390992	-34.648323	283.902120	656.271036	-41.219102	370.948876	712.370855	-60.534815	219.882127	540.552150	-67.862006	246.948281	556.412572	-155.372995	153.682118	493.818424	-111.547146	463.817158	494.128512	-106.099601	344.184024	473.680428	-38.504702	371.000472	492.270746	-152.430022	106.078149	954.591504	-456.918866	165.206049	890.873307	-457.438354	197.347383	908.191471	-452.209735	185.430932	804.548523	-447.607639	258.411013	695.349168	-429.028127	260.056818	686.388235	-305.625253	161.663692	550.926412	-449.313510	144.485064	470.162003	-430.434832	83.265095	402.511474	-421.306490	172.158168	458.347785	-404.531792	18.750339	292.038623	-399.530919	NaN	NaN	NaN	-53.008120	250.830339	-348.649803	254.186739	212.891480	-355.355145	161.224756	217.158588	-310.282750	131.099015	200.953468	-424.966607	-212.371219	946.807163	-228.546607	-4.697504	83.896010	-432.810738	-9.205818	81.020157	-32.519820	
255	1.2750	510.866777	1448.450012	-78.159908	509.197524	1471.297818	-373.430960	421.781407	1518.001904	-226.065864	473.521003	1355.570800	-227.566921	529.537420	1185.466159	48.249516	739.548545	992.637683	-13.790488	541.905479	1206.506087	-487.069196	738.653337	985.061648	-419.303491	-84.299770	1209.022432	-249.397482	109.989125	1208.018627	-422.214116	85.123561	1235.425979	-60.335566	116.439732	1134.741323	-379.583014	103.331241	1174.121874	-102.023994	-53.782753	1259.568674	-207.029786	-44.393810	1252.629640	-288.242870	24.355074	1162.740308	-40.035248	36.987256	1098.261333	-437.813159	144.173611	1073.903147	-16.668649	232.928339	1069.675899	-12.454024	306.877389	1024.839589	-11.542953	244.213905	1102.241393	-26.827955	425.611046	959.602920	-28.757105	437.141145	946.379685	-154.264097	361.459749	806.977603	-15.212887	343.634646	721.700377	-34.595079	283.879724	656.475802	-41.205656	370.862801	712.640740	-60.484267	219.980719	540.694510	-67.834614	247.098363	556.510174	-155.353252	153.780884	494.011906	-111.510714	463.918509	493.986437	-106.102836	344.265164	473.683364	-38.506985	371.099451	492.264719	-152.428870	105.973099	954.774937	-457.079486	165.275055	891.222147	-457.663661	197.368945	908.625650	-452.410725	185.731015	804.892823	-447.841145	258.902044	695.770639	-429.249977	260.795855	686.792410	-305.589497	162.265180	551.381305	-449.446373	145.108460	470.674398	-430.634767	83.812850	403.014161	-421.339590	172.680007	458.838195	-404.615378	19.280658	292.618594	-399.557506	NaN	NaN	NaN	-52.578123	251.666553	-348.674052	254.479706	212.357260	-355.305041	161.487282	217.083731	-310.346703	131.309963	201.056492	-424.939392	-212.401873	946.785035	-228.563325	-4.693398	83.903879	-432.799716	-9.199222	81.029864	-32.522942	
